HIERARCHY
ROOT reference
{
  OFFSET 0 0 0
  CHANNELS 6 Xposition Yposition Zposition Zrotation Xrotation Yrotation
  JOINT Hips
  {
    OFFSET 19.8941 91.4584 12.6699
    CHANNELS 3 Zrotation Xrotation Yrotation
    JOINT RightUpLeg
    {
      OFFSET -9.21136 -1.54315 -0.00338228
      CHANNELS 3 Zrotation Xrotation Yrotation
      JOINT RightLeg
      {
        OFFSET 0.100199 -41.8913 0.117885
        CHANNELS 3 Zrotation Xrotation Yrotation
        JOINT RightFoot
        {
          OFFSET -0.0312538 -39.9042 0.200326
          CHANNELS 3 Zrotation Xrotation Yrotation
          End Site
          {
            OFFSET 0 -7.69 17.5
          }
        }
      }
    }
    JOINT LeftUpLeg
    {
      OFFSET 9.2904 -1.6473 0.00344049
      CHANNELS 3 Zrotation Xrotation Yrotation
      JOINT LeftLeg
      {
        OFFSET 0.15381 -41.8817 -0.0541105
        CHANNELS 3 Zrotation Xrotation Yrotation
        JOINT LeftFoot
        {
          OFFSET 0.872932 -43.9846 -0.139608
          CHANNELS 3 Zrotation Xrotation Yrotation
          End Site
          {
            OFFSET 0 -7.69 17.5
          }
        }
      }
    }
    JOINT Spine
    {
      OFFSET 0.0768477 14.3139 0.027738
      CHANNELS 3 Zrotation Xrotation Yrotation
      JOINT Spine1
      {
        OFFSET -0.0133682 9.71866 0.00713354
        CHANNELS 3 Zrotation Xrotation Yrotation
        JOINT Spine2
        {
          OFFSET -0.0175262 10.1212 -0.00524987
          CHANNELS 3 Zrotation Xrotation Yrotation
          JOINT Spine3
          {
            OFFSET -0.00348171 9.71796 0.0104149
            CHANNELS 3 Zrotation Xrotation Yrotation
            JOINT Neck
            {
              OFFSET -0.0845439 10.3822 0.044921
              CHANNELS 3 Zrotation Xrotation Yrotation
              JOINT Head
              {
                OFFSET -0.0310878 9.44025 0.0694291
                CHANNELS 3 Zrotation Xrotation Yrotation
                End Site
                {
                  OFFSET 0 15.95 0
                }
              }
            }
            JOINT RightShoulder
            {
              OFFSET -3.20882 6.90619 -0.0326675
              CHANNELS 3 Zrotation Xrotation Yrotation
              JOINT RightArm
              {
                OFFSET -12.8514 -0.0142271 -0.0483735
                CHANNELS 3 Zrotation Xrotation Yrotation
                JOINT RightForeArm
                {
                  OFFSET -26.4475 -0.0994884 -0.035967
                  CHANNELS 3 Zrotation Xrotation Yrotation
                  JOINT RightHand
                  {
                    OFFSET -25.9226 -0.102631 -0.136889
                    CHANNELS 3 Zrotation Xrotation Yrotation
                    JOINT RightHandThumb1
                    {
                      OFFSET -2.48905 0.190105 3.12053
                      CHANNELS 3 Zrotation Xrotation Yrotation
                      JOINT RightHandThumb2
                      {
                        OFFSET -3.68274 0 0
                        CHANNELS 3 Zrotation Xrotation Yrotation
                        JOINT RightHandThumb3
                        {
                          OFFSET -2.55832 0 0
                          CHANNELS 3 Zrotation Xrotation Yrotation
                          End Site
                          {
                            OFFSET -2.194 0 0
                          }
                        }
                      }
                    }
                    JOINT RightInHandIndex
                    {
                      OFFSET -3.22368 0.508421 1.97842
                      CHANNELS 3 Zrotation Xrotation Yrotation
                      JOINT RightHandIndex1
                      {
                        OFFSET -5.21684 -0.091368 0.999158
                        CHANNELS 3 Zrotation Xrotation Yrotation
                        JOINT RightHandIndex2
                        {
                          OFFSET -3.61937 0 0
                          CHANNELS 3 Zrotation Xrotation Yrotation
                          JOINT RightHandIndex3
                          {
                            OFFSET -2.0521 0 0
                            CHANNELS 3 Zrotation Xrotation Yrotation
                            End Site
                            {
                              OFFSET -1.805 0 0
                            }
                          }
                        }
                      }
                    }
                    JOINT RightInHandMiddle
                    {
                      OFFSET -3.38211 0.517263 0.756737
                      CHANNELS 3 Zrotation Xrotation Yrotation
                      JOINT RightHandMiddle1
                      {
                        OFFSET -5.17411 -0.084 0.313895
                        CHANNELS 3 Zrotation Xrotation Yrotation
                        JOINT RightHandMiddle2
                        {
                          OFFSET -3.94947 0 0
                          CHANNELS 3 Zrotation Xrotation Yrotation
                          JOINT RightHandMiddle3
                          {
                            OFFSET -2.47579 0 0
                            CHANNELS 3 Zrotation Xrotation Yrotation
                            End Site
                            {
                              OFFSET -1.975 0 0
                            }
                          }
                        }
                      }
                    }
                    JOINT RightInHandRing
                    {
                      OFFSET -3.36516 0.537895 -0.128947
                      CHANNELS 3 Zrotation Xrotation Yrotation
                      JOINT RightHandRing1
                      {
                        OFFSET -4.63474 -0.022105 -0.478947
                        CHANNELS 3 Zrotation Xrotation Yrotation
                        JOINT RightHandRing2
                        {
                          OFFSET -3.44238 0 0
                          CHANNELS 3 Zrotation Xrotation Yrotation
                          JOINT RightHandRing3
                          {
                            OFFSET -2.3881 0 0
                            CHANNELS 3 Zrotation Xrotation Yrotation
                            End Site
                            {
                              OFFSET -1.857 0 0
                            }
                          }
                        }
                      }
                    }
                    JOINT RightInHandPinky
                    {
                      OFFSET -3.16105 0.469368 -1.20179
                      CHANNELS 3 Zrotation Xrotation Yrotation
                      JOINT RightHandPinky1
                      {
                        OFFSET -4.14105 -0.022105 -1.09053
                        CHANNELS 3 Zrotation Xrotation Yrotation
                        JOINT RightHandPinky2
                        {
                          OFFSET -2.75653 0 0
                          CHANNELS 3 Zrotation Xrotation Yrotation
                          JOINT RightHandPinky3
                          {
                            OFFSET -1.74189 0 0
                            CHANNELS 3 Zrotation Xrotation Yrotation
                            End Site
                            {
                              OFFSET -1.645 0 0
                            }
                          }
                        }
                      }
                    }
                  }
                }
              }
            }
            JOINT LeftShoulder
            {
              OFFSET 3.19355 6.9059 0.0487761
              CHANNELS 3 Zrotation Xrotation Yrotation
              JOINT LeftArm
              {
                OFFSET 12.7349 -0.00433124 -0.0458964
                CHANNELS 3 Zrotation Xrotation Yrotation
                JOINT LeftForeArm
                {
                  OFFSET 26.4064 -0.194468 0.00909971
                  CHANNELS 3 Zrotation Xrotation Yrotation
                  JOINT LeftHand
                  {
                    OFFSET 25.9027 0.0515579 -0.250056
                    CHANNELS 3 Zrotation Xrotation Yrotation
                    JOINT LeftHandThumb1
                    {
                      OFFSET 2.48905 0.190105 3.12053
                      CHANNELS 3 Zrotation Xrotation Yrotation
                      JOINT LeftHandThumb2
                      {
                        OFFSET 3.68274 0 0
                        CHANNELS 3 Zrotation Xrotation Yrotation
                        JOINT LeftHandThumb3
                        {
                          OFFSET 2.55832 0 0
                          CHANNELS 3 Zrotation Xrotation Yrotation
                          End Site
                          {
                            OFFSET 2.194 0 0
                          }
                        }
                      }
                    }
                    JOINT LeftInHandIndex
                    {
                      OFFSET 3.22368 0.508421 1.97842
                      CHANNELS 3 Zrotation Xrotation Yrotation
                      JOINT LeftHandIndex1
                      {
                        OFFSET 5.21684 -0.091368 0.999158
                        CHANNELS 3 Zrotation Xrotation Yrotation
                        JOINT LeftHandIndex2
                        {
                          OFFSET 3.61937 0 0
                          CHANNELS 3 Zrotation Xrotation Yrotation
                          JOINT LeftHandIndex3
                          {
                            OFFSET 2.0521 0 0
                            CHANNELS 3 Zrotation Xrotation Yrotation
                            End Site
                            {
                              OFFSET 1.805 0 0
                            }
                          }
                        }
                      }
                    }
                    JOINT LeftInHandMiddle
                    {
                      OFFSET 3.38211 0.517263 0.756737
                      CHANNELS 3 Zrotation Xrotation Yrotation
                      JOINT LeftHandMiddle1
                      {
                        OFFSET 5.17411 -0.084 0.313895
                        CHANNELS 3 Zrotation Xrotation Yrotation
                        JOINT LeftHandMiddle2
                        {
                          OFFSET 3.94947 0 0
                          CHANNELS 3 Zrotation Xrotation Yrotation
                          JOINT LeftHandMiddle3
                          {
                            OFFSET 2.47579 0 0
                            CHANNELS 3 Zrotation Xrotation Yrotation
                            End Site
                            {
                              OFFSET 1.975 0 0
                            }
                          }
                        }
                      }
                    }
                    JOINT LeftInHandRing
                    {
                      OFFSET 3.36516 0.537895 -0.128947
                      CHANNELS 3 Zrotation Xrotation Yrotation
                      JOINT LeftHandRing1
                      {
                        OFFSET 4.63474 -0.022105 -0.478947
                        CHANNELS 3 Zrotation Xrotation Yrotation
                        JOINT LeftHandRing2
                        {
                          OFFSET 3.44238 0 0
                          CHANNELS 3 Zrotation Xrotation Yrotation
                          JOINT LeftHandRing3
                          {
                            OFFSET 2.3881 0 0
                            CHANNELS 3 Zrotation Xrotation Yrotation
                            End Site
                            {
                              OFFSET 1.857 0 0
                            }
                          }
                        }
                      }
                    }
                    JOINT LeftInHandPinky
                    {
                      OFFSET 3.16105 0.469368 -1.20179
                      CHANNELS 3 Zrotation Xrotation Yrotation
                      JOINT LeftHandPinky1
                      {
                        OFFSET 4.14105 -0.022105 -1.09053
                        CHANNELS 3 Zrotation Xrotation Yrotation
                        JOINT LeftHandPinky2
                        {
                          OFFSET 2.75653 0 0
                          CHANNELS 3 Zrotation Xrotation Yrotation
                          JOINT LeftHandPinky3
                          {
                            OFFSET 1.74189 0 0
                            CHANNELS 3 Zrotation Xrotation Yrotation
                            End Site
                            {
                              OFFSET 1.645 0 0
                            }
                          }
                        }
                      }
                    }
                  }
                }
              }
            }
          }
        }
      }
    }
  }
}
MOTION
Frames: 2
Frame Time: 0.00416667
3.000000000000000000e+02 0.000000000000000000e+00 0.000000000000000000e+00 0.000000000000000000e+00 0.000000000000000000e+00 0.000000000000000000e+00 1.550952135586211762e-02 -4.992700559028336732e-03 9.337454614381566695e-03 -3.157867555137913035e-02 7.496863168853262413e-03 -6.102511227603901051e-02 2.850772602676371684e-02 -2.656968647989578838e-02 -3.984471944537327538e-03 -5.592943201625104159e-03 2.130288213925582777e-02 2.658559689354606306e-02 -1.012395852184854415e-02 -1.221028707184461555e-02 -3.590064319050546848e-02 9.893717081465696825e-03 -3.658676566568763722e-03 1.235781156948359202e-02 2.743503670360711386e-03 -1.045315101287133501e-02 1.441133557154994534e-02 -8.052801964018099778e-02 9.223998561674169316e-01 2.833815201755464086e-01 -6.428169477436984983e-03 -2.155869174537288768e-01 3.367683751790936236e-02 2.260609659770789273e-02 -6.907813339111578133e-01 -7.525153508189445783e-02 7.735464152127651677e-04 -2.097423839839908724e-03 -4.158179521508039572e-03 7.906258695364755786e-04 4.222731491638649463e-03 -4.480953172051028131e-03 -2.153280722972468128e-02 6.188559353304168981e-02 -8.823026316045218254e-02 5.162947523828305407e-02 -2.785147110122542999e-02 -1.255223250392802914e-01 -1.753103111489714705e-01 1.367290696799438043e-01 -7.850440643107867156e-02 -1.072766538567295100e+02 -1.930227333310169380e+00 -1.079753850817532168e+02 -6.692077382600716828e-02 -2.297548335209255388e+00 2.476358117809228432e+00 0.000000000000000000e+00 0.000000000000000000e+00 0.000000000000000000e+00 -1.261404304949831799e-14 -6.677766567783955084e-15 0.000000000000000000e+00 -6.161794542979439539e-15 -3.474991462013424897e-15 0.000000000000000000e+00 -1.232433916451622667e-15 7.800860520927025374e-15 6.670539669334323451e-15 0.000000000000000000e+00 0.000000000000000000e+00 0.000000000000000000e+00 0.000000000000000000e+00 -5.366989678693842892e-15 -1.562329288363264547e-14 0.000000000000000000e+00 -3.203875873280877891e-15 -1.376762540588150954e-14 -1.232433916451622667e-15 7.800860520927025374e-15 6.670539669334323451e-15 0.000000000000000000e+00 5.684981056810093551e-15 -5.177553023278798726e-15 0.000000000000000000e+00 1.029605281690455203e-15 1.378083268636815425e-16 0.000000000000000000e+00 -4.675459094721620271e-15 -1.756500940534264601e-16 -1.232433916451622667e-15 7.800860520927025374e-15 6.670539669334323451e-15 0.000000000000000000e+00 0.000000000000000000e+00 0.000000000000000000e+00 0.000000000000000000e+00 -5.890155971915600583e-15 -1.304558564495972455e-14 0.000000000000000000e+00 -3.644154745345703101e-15 -1.486429152973921966e-14 -1.232433916451622667e-15 7.800860520927025374e-15 6.670539669334323451e-15 0.000000000000000000e+00 0.000000000000000000e+00 0.000000000000000000e+00 0.000000000000000000e+00 -7.444594434203117301e-16 -1.290503058500136599e-14 0.000000000000000000e+00 -8.089380321973041760e-15 -1.918285925085402517e-14 -9.289124180208609138e-02 7.225584254964700914e-02 -3.198875561974899862e-01 -4.611637095894434712e-01 2.260118257315617274e-02 6.740456113475090660e-01 -5.682830896863672043e-01 -3.101456602952168407e-01 -4.461684259707120875e-02 2.318983306675712619e-01 5.365355092418014893e-01 -5.229146921392111569e-01 0.000000000000000000e+00 0.000000000000000000e+00 0.000000000000000000e+00 7.594849696576441489e-15 -2.852781939397007571e-15 0.000000000000000000e+00 2.190987330694066545e-14 9.290172459569273662e-15 0.000000000000000000e+00 1.997112056173658034e-15 9.156500810648377637e-16 -5.628404240982171798e-15 0.000000000000000000e+00 0.000000000000000000e+00 0.000000000000000000e+00 0.000000000000000000e+00 5.335099471172337583e-15 -9.009235559468632414e-15 0.000000000000000000e+00 1.023731076981391299e-14 -1.105872377671572048e-15 1.997112056173658034e-15 9.156500810648377637e-16 -5.628404240982171798e-15 0.000000000000000000e+00 8.188447668344445614e-15 9.512509330980213072e-15 0.000000000000000000e+00 -6.790258495588070851e-15 4.371379031650636051e-15 0.000000000000000000e+00 6.841360619672241200e-15 -5.196581497487322070e-15 1.997112056173658034e-15 9.156500810648377637e-16 -5.628404240982171798e-15 0.000000000000000000e+00 0.000000000000000000e+00 0.000000000000000000e+00 0.000000000000000000e+00 9.389850236699613916e-16 -1.220948487189134496e-14 0.000000000000000000e+00 -3.227471060689729261e-15 3.435714508307554096e-15 1.997112056173658034e-15 9.156500810648377637e-16 -5.628404240982171798e-15 0.000000000000000000e+00 0.000000000000000000e+00 0.000000000000000000e+00 0.000000000000000000e+00 6.402711540458481207e-15 -6.238549924207473640e-15 0.000000000000000000e+00 1.122053134341771786e-16 4.974163508490553027e-15
3.000000000000000000e+02 0.000000000000000000e+00 0.000000000000000000e+00 0.000000000000000000e+00 0.000000000000000000e+00 0.000000000000000000e+00 1.546418938886236216e-02 -5.557505661806553914e-03 7.138539419061300587e-03 -3.048427215157226144e-02 7.355027705925878609e-03 -5.759737442929426660e-02 3.131919029866550575e-02 -2.851094456516614986e-02 -9.302934479054265557e-03 -5.664924660680907553e-03 2.481019936502927570e-02 2.959210074326003651e-02 -8.909014995070648965e-03 -1.137197148604785282e-02 -4.005523836418738853e-02 1.036897263248315326e-02 -5.041424380167173862e-03 1.698028732563766283e-02 1.402956652655301673e-03 -1.101633071139216692e-02 1.634554014540673741e-02 -7.421767971245822604e-02 8.344121615094992617e-01 2.575552928771422945e-01 -6.128040548851111657e-03 -1.929805656946090298e-01 3.100950096637116599e-02 1.983542135640307957e-02 -6.202007936013641531e-01 -6.660314137333546436e-02 5.443962043677503127e-04 -6.842005172164535194e-04 -2.934795271582798376e-03 5.136974650840720824e-04 3.705132977241410710e-04 -4.360293633962116638e-03 -1.797558579226058925e-02 4.532516740758860824e-02 -7.226641989196108673e-02 6.135827851707692515e-02 -4.714774818791318822e-02 -5.443983735241004346e-02 -2.821686809369061133e-01 1.901578810652592710e-01 -6.568219410282761031e-03 -1.129733256849310408e+02 -1.822765060107079060e+00 -1.135786054615874718e+02 -4.649539707846957540e-03 -2.014833789982524159e+00 2.095241986092044151e+00 0.000000000000000000e+00 0.000000000000000000e+00 0.000000000000000000e+00 -1.185040945394627048e-14 -6.913448306403983740e-15 0.000000000000000000e+00 -6.327061516635781608e-15 -3.924475559288278089e-15 0.000000000000000000e+00 -1.924386897257708733e-15 7.213920082349629572e-15 6.728971486519359408e-15 0.000000000000000000e+00 0.000000000000000000e+00 0.000000000000000000e+00 0.000000000000000000e+00 -5.308337428426070501e-15 -1.526049339652503515e-14 0.000000000000000000e+00 -3.581452072300470916e-15 -1.215365919426723707e-14 -1.924386897257708733e-15 7.213920082349629572e-15 6.728971486519359408e-15 0.000000000000000000e+00 5.255246068010128607e-15 -5.485371670331296263e-15 0.000000000000000000e+00 3.436591612282488371e-16 -1.246330815156881588e-16 0.000000000000000000e+00 -4.401629426443137999e-15 2.349512666676053820e-16 -1.924386897257708733e-15 7.213920082349629572e-15 6.728971486519359408e-15 0.000000000000000000e+00 0.000000000000000000e+00 0.000000000000000000e+00 0.000000000000000000e+00 -5.948463654777200200e-15 -1.403475885045020086e-14 0.000000000000000000e+00 -3.834943077256231517e-15 -1.521398835348399673e-14 -1.924386897257708733e-15 7.213920082349629572e-15 6.728971486519359408e-15 0.000000000000000000e+00 0.000000000000000000e+00 0.000000000000000000e+00 0.000000000000000000e+00 -1.373716730007627853e-15 -1.417974197288996035e-14 0.000000000000000000e+00 -7.141342321642670083e-15 -1.866993228878252140e-14 -9.153392955630484940e-02 5.620244859268138521e-02 -3.011977753040132044e-01 -5.486200214112190165e-01 3.388530997828585745e-02 8.098251765294164350e-01 -6.060864971240206289e-01 -4.948169161751359568e-01 -8.952094114276130943e-02 3.182592988448491589e-01 5.066683643716359819e-01 -5.360137526880235370e-01 0.000000000000000000e+00 0.000000000000000000e+00 0.000000000000000000e+00 4.474163577142941694e-15 -1.004514110144077237e-15 0.000000000000000000e+00 2.013770743744588224e-14 9.687496936355070058e-15 0.000000000000000000e+00 2.646252776599616497e-15 1.645917105282284270e-15 -5.347751254269374331e-15 0.000000000000000000e+00 0.000000000000000000e+00 0.000000000000000000e+00 0.000000000000000000e+00 5.391150762854616949e-15 -9.120897030093509307e-15 0.000000000000000000e+00 9.167386091181012307e-15 -2.716686516495580298e-15 2.646252776599616497e-15 1.645917105282284270e-15 -5.347751254269374331e-15 0.000000000000000000e+00 8.793210983641533968e-15 9.742644577746652003e-15 0.000000000000000000e+00 -6.108033960866730994e-15 4.542959714672398706e-15 0.000000000000000000e+00 6.201002597570268092e-15 -5.018973757830538339e-15 2.646252776599616497e-15 1.645917105282284270e-15 -5.347751254269374331e-15 0.000000000000000000e+00 0.000000000000000000e+00 0.000000000000000000e+00 0.000000000000000000e+00 3.665987651302783143e-16 -1.078698513663522018e-14 0.000000000000000000e+00 -3.005529797052232873e-15 2.346850433102633115e-15 2.646252776599616497e-15 1.645917105282284270e-15 -5.347751254269374331e-15 0.000000000000000000e+00 0.000000000000000000e+00 0.000000000000000000e+00 0.000000000000000000e+00 6.296522536965884314e-15 -4.317261878870447350e-15 0.000000000000000000e+00 4.587155233749306636e-16 3.302535519165013053e-15
